<svg xmlns="http://www.w3.org/2000/svg" xmlns:xlink="http://www.w3.org/1999/xlink" version="1.1" x="0px" y="0px" viewBox="0 0 66 82.5" style="enable-background:new 0 0 66 66;" xml:space="preserve"><path d="M31.36,30.26c4.29,0,8.15-2.46,9.98-6.32h0.53l1.57,0.83c0.21,0.11,0.47,0.11,0.69,0l1.39-0.74l1.39,0.74  c0.21,0.11,0.47,0.11,0.69,0l1.38-0.74l1.39,0.74c0.21,0.11,0.47,0.11,0.69,0l1.39-0.74l1.39,0.74c0.21,0.11,0.47,0.11,0.69,0  l1.57-0.83h1.53c0.29,0,0.57-0.1,0.79-0.29l3.28-2.82c0.27-0.23,0.42-0.56,0.42-0.92c0-0.35-0.15-0.69-0.42-0.92l-3.28-2.83  c-0.22-0.19-0.5-0.29-0.79-0.29H41.89C40.4,11.16,36,8.02,30.99,8.19c-5.69,0.19-10.47,4.97-10.66,10.65c-0.1,3.03,1,5.89,3.1,8.06  C25.52,29.07,28.34,30.26,31.36,30.26z M31.04,9.65c0.11,0,0.22-0.01,0.33-0.01c4.37,0,8.15,2.9,9.26,7.15  c0.08,0.32,0.38,0.55,0.71,0.55h16.17l2.98,2.57l-2.98,2.56h-1.62c-0.12,0-0.24,0.03-0.34,0.09l-1.39,0.74l-1.39-0.74  c-0.21-0.11-0.47-0.11-0.69,0l-1.39,0.74l-1.39-0.74c-0.21-0.11-0.47-0.11-0.69,0l-1.38,0.74l-1.39-0.74  c-0.21-0.11-0.47-0.11-0.69,0l-1.39,0.74l-1.39-0.74c-0.11-0.06-0.22-0.09-0.34-0.09h-1.19c-0.29,0-0.56,0.18-0.68,0.45  c-1.51,3.57-4.97,5.87-8.83,5.87c-2.62,0-5.07-1.04-6.89-2.92c-1.82-1.88-2.77-4.37-2.69-6.99C21.96,13.96,26.1,9.82,31.04,9.65z"/><path d="M29.36,19.22c0-1.73-1.41-3.13-3.14-3.13c-1.73,0-3.13,1.41-3.13,3.13c0,1.73,1.41,3.14,3.13,3.14  C27.95,22.36,29.36,20.95,29.36,19.22z M24.55,19.22c0-0.92,0.75-1.67,1.67-1.67c0.93,0,1.68,0.75,1.68,1.67  c0,0.93-0.75,1.68-1.68,1.68C25.3,20.9,24.55,20.14,24.55,19.22z"/><path d="M63.18,37.21c-1.14-0.72-2.54-0.8-3.74-0.22l-10.53,4.86c0.01-0.11,0.02-0.23,0.02-0.35c0-0.01,0-0.02,0-0.02  c0-0.01,0-0.01,0-0.02c-0.01-2.17-1.78-3.92-3.94-3.92H37.9c-3.5-3.08-7.87-4.96-11.75-5.05c-4.15-0.1-7.85-0.05-9.38-0.02v-2.07  c0-1.42-1.16-2.58-2.58-2.58H3.58C2.16,27.82,1,28.98,1,30.41v21.11c0,1.42,1.16,2.58,2.58,2.58h10.6c1.42,0,2.58-1.16,2.58-2.58  v-1.54c3.44,1.99,13.94,7.84,18.8,7.84c0.1,0,0.21,0,0.31-0.01c8.38-0.48,26.45-13.43,27.15-13.94C64.24,43.18,65,41.89,65,40.5  C65,39.16,64.32,37.93,63.18,37.21z M15.3,51.52c0,0.62-0.5,1.12-1.12,1.12H3.58c-0.62,0-1.12-0.5-1.12-1.12V30.41  c0-0.61,0.5-1.12,1.12-1.12h10.6c0.62,0,1.12,0.5,1.12,1.12V51.52z M62.23,42.64c-0.18,0.13-18.49,13.26-26.45,13.71  C31.16,56.62,19,49.6,16.77,48.28V33.94c1.5-0.03,5.21-0.08,9.35,0.02c3.62,0.09,7.74,1.91,11.02,4.87  c0.13,0.12,0.31,0.19,0.49,0.19h7.36c1.37,0,2.48,1.11,2.48,2.48c0,0.22-0.04,0.42-0.09,0.63c-0.01,0.05-0.03,0.1-0.05,0.15  c-0.06,0.19-0.14,0.37-0.25,0.54c-0.44,0.69-1.21,1.16-2.09,1.16H30.77c-0.4,0-0.73,0.33-0.73,0.73s0.33,0.73,0.73,0.73h14.21  c1.3,0,2.44-0.64,3.16-1.61l11.93-5.51c0.75-0.36,1.63-0.31,2.34,0.13c0.71,0.45,1.13,1.21,1.13,2.04  C63.53,41.36,63.06,42.17,62.23,42.64z"/><path d="M10.91,45.98c-1.52,0-2.76,1.24-2.76,2.76c0,1.52,1.24,2.76,2.76,2.76s2.76-1.24,2.76-2.76  C13.66,47.22,12.43,45.98,10.91,45.98z M10.91,50.03c-0.71,0-1.29-0.58-1.29-1.29c0-0.71,0.58-1.29,1.29-1.29  c0.71,0,1.29,0.58,1.29,1.29C12.2,49.45,11.62,50.03,10.91,50.03z"/></svg>